<?xml version="1.0" encoding="utf-8"?>
<!-- Generator: Adobe Illustrator 24.2.1, SVG Export Plug-In . SVG Version: 6.00 Build 0)  -->
<svg version="1.1" id="Capa_1" xmlns="http://www.w3.org/2000/svg" xmlns:xlink="http://www.w3.org/1999/xlink" x="0px" y="0px"
	 viewBox="0 0 200 200" style="enable-background:new 0 0 200 200;" xml:space="preserve">
<style type="text/css">
	.st0{opacity:0.5;}
	.st1{fill:#FFFFFF;}
	.st2{fill:#606060;}
	.st3{fill:#1F9EB5;}
	.st4{fill:#848585;}
	.st5{fill:#4BB1E0;}
	.st6{fill:none;stroke:#848585;stroke-width:3;stroke-miterlimit:10;}
	.st7{fill:none;stroke:#4BB1E0;stroke-width:6;stroke-linecap:round;stroke-miterlimit:10;}
	.st8{fill:none;stroke:#848585;stroke-width:4;stroke-miterlimit:10;}
</style>
<path class="st5" d="M109.67,97.77c-1,0-1.93,0.38-2.63,1.07c-2.9,2.87-6.52,6.34-9.71,9.41l-0.24,0.23
	c-3.3,3.17-6.49,6.23-9.27,8.96l-1.35,1.33l-7.91-8.01c-0.77-0.77-1.66-1.18-2.6-1.18c-0.1,0-0.2,0-0.3,0.01
	c-1.58,0.13-2.65,0.93-3.16,2.36c-0.51,1.41-0.19,2.79,0.89,3.88c3.95,4,6.5,6.56,10.49,10.54c0.41,0.4,0.92,0.72,1.44,0.9
	c1.47,0.47,2.79,0.13,3.98-1.05c3.2-3.18,6.94-6.79,11.49-11.18c3.67-3.53,7.88-7.58,11.28-10.96c0.14-0.14,0.23-0.23,0.32-0.33
	c1.04-1.16,1.2-3.03,0.37-4.35C112.1,98.39,110.94,97.77,109.67,97.77z"/>
<path class="st4" d="M137.62,34.42c-0.03,3-1.3,4.3-4.3,4.3H67.19c-3.68,0-4.79-1.14-4.79-4.92c-0.03-2.94-0.03-7.18,0-10.12
	c0.03-2.6,1.36-3.87,3.96-3.99c2.78-0.09,5.63,0.06,8.35-0.46c4.73-0.96,8.44-3.68,10.89-7.95c0.84-1.45,1.61-2.94,2.47-4.39
	c1.89-3.19,4.7-4.79,8.38-4.86c2.13-0.06,4.27,0.03,6.4-0.03c4.33-0.09,7.36,1.89,9.53,5.57c1.64,2.75,3.31,5.63,5.54,7.86
	c3.46,3.43,7.95,4.49,12.81,4.33c6.5-0.19,6.9,0.34,6.9,6.74C137.62,28.73,137.65,32.22,137.62,34.42z"/>
<g>
	<path class="st4" d="M179.06,148.31c0.04-32.2,0.05-64.41,0-96.6c-0.02-17.24-12.58-29.76-29.87-29.78l-5.54,0v10.6l0.14,1.57
		l1.57-0.03c3.32-0.06,6.68-0.2,10.1,0.97c7.06,2.42,11.28,8.62,11.29,16.6l0,57.85l0,28.92c0,3.05-0.02,6.11-0.04,9.17
		c-0.05,6.88-0.09,14.01,0.1,21.02c0.12,4.61-1.57,8.96-4.77,12.24c-3.34,3.43-7.91,5.32-12.97,5.32
		c-14.43-0.08-28.86-0.11-43.29-0.11l-55.04,0.04c-10.41,0-17.68-7.25-17.68-17.63c-0.02-38.12-0.02-76.23,0.04-114.34
		c0-2.84,0.08-5.83,0.91-8.36c2.21-6.75,6.83-10.57,13.74-11.36c1.92-0.22,4.4-0.22,7-0.14l1.59,0.05V21.91l-6.78,0.04
		c-2.13,0.02-4.17,0.24-6.05,0.68c-13.51,3.14-22.6,14.6-22.6,28.52l-0.01,72.4c-0.01,15.27-0.01,30.53,0.06,45.8
		c0.01,2.55,0.41,5.3,1.17,8.15c2.67,10,12.55,20.76,27.9,20.76l0.53,0c7.56-0.13,68.16-0.02,68.16-0.02
		c11.04,0,22.08-0.02,33.13-0.13c13.63-0.13,25.93-11.74,26.85-25.35c0.43-6.44,0.41-13,0.38-19.33L179.06,148.31z"/>
	<g>
		
			<ellipse transform="matrix(0.2309 -0.973 0.973 0.2309 -0.7958 139.9201)" class="st4" cx="88.11" cy="70.46" rx="5.93" ry="5.93"/>
		<path class="st4" d="M152.4,66.71c-1.6-1.42-3.43-2.45-5.03-3.31c-0.17-0.1-0.38-0.21-0.58-0.34c-1-0.58-2.23-1.3-3.5-1.3
			c-0.62,0-1.2,0.19-1.68,0.53c-1.34,0.96-2.06,2.25-1.97,3.48c0.1,1.15,0.86,2.15,2.18,2.78c0.45,0.24,0.91,0.34,1.39,0.34
			c0.72,0,1.36-0.24,1.92-0.46c0.46-0.17,0.91-0.33,1.32-0.33c1.22,0,2.51,1.44,3.66,4.07c1.58,3.57-0.17,7.83-1.73,11.57
			c-0.36,0.91-0.72,1.75-1.03,2.59c-1.32,3.62-2.69,7.28-4.02,10.83c-1,0.46-1.7,1.39-1.89,2.49c-1.24,7.66-5.12,8.26-6.27,8.26
			h-0.19l-0.21-0.03c-1.87-0.07-3.43-1.34-4.67-3.78l-0.36-0.76c-0.81-1.82-1.12-3.52-1.15-3.71c-0.17-0.93-0.72-1.75-1.51-2.27
			c-0.09-0.22-0.17-0.45-0.26-0.7c-1.96-5.22-4.46-12.12-6.68-19.17c-1.01-3.24-0.22-6.16,2.33-8.46c0.64-0.57,1.32-1.06,2.01-0.93
			c0.26,0.07,0.48,0.17,0.77,0.29c0.46,0.24,1.01,0.48,1.73,0.5h0.17c1.97,0,4.05-1.3,4.05-3.52c0-1-0.33-1.89-0.96-2.51
			c-0.67-0.69-1.58-1.01-2.71-0.91c-0.93,0.07-1.8,0.41-2.63,0.76c-0.51,0.19-0.98,0.36-1.44,0.5c-2.85,0.74-5.27,2.68-6.8,5.48
			c-1.77,3.21-2.13,7.09-1,10.62c2.01,6.27,4.17,12.87,6.45,19.64c-0.22,0.57-0.29,1.18-0.21,1.8c0.29,1.8,0.88,3.6,1.61,5.27
			c1.22,2.78,3.06,5.44,5.7,7.04c0.69,0.41,1.39,0.74,2.11,0.96l0.69,0.02h0.51l-0.05,0.53c-0.74,21.53-18.19,38.39-39.72,38.39
			c-21.94,0-39.79-17.85-39.79-39.79c0-17.6,11.79-33.31,28.68-38.19l0.62-0.18l-0.4-0.5c-0.75-0.93-1.16-2.12-1.16-3.37
			c0-0.29,0.02-0.52,0.06-0.74l0.13-0.68l-0.67,0.19c-19.27,5.54-32.74,23.41-32.74,43.48c0,24.96,20.31,45.26,45.26,45.26
			c24.58,0,44.44-19.26,45.21-43.84l0.04-0.56h0.63c2.27-0.6,4.39-2.42,5.77-4.17c2.04-2.63,3.12-5.87,3.66-9.13
			c0.09-0.46,0.05-0.94-0.07-1.41c0.22-0.72,0.46-1.44,0.72-2.16c0.89-2.61,1.82-5.27,2.73-7.86c1.06-3.04,2.2-6.16,3.23-9.27
			c0.48-1.42,0.77-3.09,0.86-4.79C155.69,71.67,154.56,68.63,152.4,66.71z"/>
	</g>
</g>
</svg>
